STARTFONT 2.1
FONT -FreeType-FreeDooM-Bold-R-Normal--34-340-72-72-P-170-ISO8859-1
SIZE 34 72 72
FONTBOUNDINGBOX 7 12 0 0
COMMENT "Generated by fontforge, http://fontforge.sourceforge.net"
COMMENT ""
COMMENT "Converted from OpenType font "FreeUniversal-Bold.ttf" by "otf2bdf 3.0"."
COMMENT ""
STARTPROPERTIES 19
FOUNDRY "FreeType"
FAMILY_NAME "FreeDooM"
WEIGHT_NAME "Bold"
SLANT "R"
SETWIDTH_NAME "Normal"
ADD_STYLE_NAME ""
PIXEL_SIZE 34
POINT_SIZE 340
RESOLUTION_X 72
RESOLUTION_Y 72
SPACING "P"
AVERAGE_WIDTH 170
CHARSET_REGISTRY "ISO8859"
CHARSET_ENCODING "1"
FONT_ASCENT 36
FONT_DESCENT 8
COPYRIGHT "FreeUniveral (c) Stephen Wilson 2009    Original Font Sil-Sophia  Copyright (c) SIL International, 1994-2008."
_OTF_FONTFILE "FreeUniversal-Bold.ttf"
_OTF_PSNAME "FreeUniversal-Bold"
ENDPROPERTIES
CHARS 256
STARTCHAR uni0000
ENCODING 0
SWIDTH 205 0
DWIDTH 7 0
BBX 1 1 0 0
BITMAP
00
ENDCHAR
STARTCHAR uni0001
ENCODING 1
SWIDTH 205 0
DWIDTH 7 0
BBX 1 1 0 0
BITMAP
00
ENDCHAR
STARTCHAR uni0002
ENCODING 2
SWIDTH 205 0
DWIDTH 7 0
BBX 1 1 0 0
BITMAP
00
ENDCHAR
STARTCHAR uni0003
ENCODING 3
SWIDTH 205 0
DWIDTH 7 0
BBX 1 1 0 0
BITMAP
00
ENDCHAR
STARTCHAR uni0004
ENCODING 4
SWIDTH 205 0
DWIDTH 7 0
BBX 1 1 0 0
BITMAP
00
ENDCHAR
STARTCHAR uni0005
ENCODING 5
SWIDTH 205 0
DWIDTH 7 0
BBX 1 1 0 0
BITMAP
00
ENDCHAR
STARTCHAR uni0006
ENCODING 6
SWIDTH 205 0
DWIDTH 7 0
BBX 1 1 0 0
BITMAP
00
ENDCHAR
STARTCHAR uni0007
ENCODING 7
SWIDTH 205 0
DWIDTH 7 0
BBX 1 1 0 0
BITMAP
00
ENDCHAR
STARTCHAR uni0008
ENCODING 8
SWIDTH 205 0
DWIDTH 7 0
BBX 1 1 0 0
BITMAP
00
ENDCHAR
STARTCHAR uni0009
ENCODING 9
SWIDTH 205 0
DWIDTH 7 0
BBX 1 1 0 0
BITMAP
00
ENDCHAR
STARTCHAR uni000A
ENCODING 10
SWIDTH 205 0
DWIDTH 7 0
BBX 1 1 0 0
BITMAP
00
ENDCHAR
STARTCHAR uni000B
ENCODING 11
SWIDTH 205 0
DWIDTH 7 0
BBX 1 1 0 0
BITMAP
00
ENDCHAR
STARTCHAR uni000C
ENCODING 12
SWIDTH 205 0
DWIDTH 7 0
BBX 1 1 0 0
BITMAP
00
ENDCHAR
STARTCHAR uni000D
ENCODING 13
SWIDTH 205 0
DWIDTH 7 0
BBX 1 1 0 0
BITMAP
00
ENDCHAR
STARTCHAR uni000E
ENCODING 14
SWIDTH 205 0
DWIDTH 7 0
BBX 1 1 0 0
BITMAP
00
ENDCHAR
STARTCHAR uni000F
ENCODING 15
SWIDTH 205 0
DWIDTH 7 0
BBX 1 1 0 0
BITMAP
00
ENDCHAR
STARTCHAR uni0010
ENCODING 16
SWIDTH 205 0
DWIDTH 7 0
BBX 1 1 0 0
BITMAP
00
ENDCHAR
STARTCHAR uni0011
ENCODING 17
SWIDTH 205 0
DWIDTH 7 0
BBX 1 1 0 0
BITMAP
00
ENDCHAR
STARTCHAR uni0012
ENCODING 18
SWIDTH 205 0
DWIDTH 7 0
BBX 1 1 0 0
BITMAP
00
ENDCHAR
STARTCHAR uni0013
ENCODING 19
SWIDTH 205 0
DWIDTH 7 0
BBX 1 1 0 0
BITMAP
00
ENDCHAR
STARTCHAR uni0014
ENCODING 20
SWIDTH 205 0
DWIDTH 7 0
BBX 1 1 0 0
BITMAP
00
ENDCHAR
STARTCHAR uni0015
ENCODING 21
SWIDTH 205 0
DWIDTH 7 0
BBX 1 1 0 0
BITMAP
00
ENDCHAR
STARTCHAR uni0016
ENCODING 22
SWIDTH 205 0
DWIDTH 7 0
BBX 1 1 0 0
BITMAP
00
ENDCHAR
STARTCHAR uni0017
ENCODING 23
SWIDTH 205 0
DWIDTH 7 0
BBX 1 1 0 0
BITMAP
00
ENDCHAR
STARTCHAR uni0018
ENCODING 24
SWIDTH 205 0
DWIDTH 7 0
BBX 1 1 0 0
BITMAP
00
ENDCHAR
STARTCHAR uni0019
ENCODING 25
SWIDTH 205 0
DWIDTH 7 0
BBX 1 1 0 0
BITMAP
00
ENDCHAR
STARTCHAR uni001A
ENCODING 26
SWIDTH 205 0
DWIDTH 7 0
BBX 1 1 0 0
BITMAP
00
ENDCHAR
STARTCHAR uni001B
ENCODING 27
SWIDTH 205 0
DWIDTH 7 0
BBX 1 1 0 0
BITMAP
00
ENDCHAR
STARTCHAR uni001C
ENCODING 28
SWIDTH 205 0
DWIDTH 7 0
BBX 1 1 0 0
BITMAP
00
ENDCHAR
STARTCHAR uni001D
ENCODING 29
SWIDTH 205 0
DWIDTH 7 0
BBX 1 1 0 0
BITMAP
00
ENDCHAR
STARTCHAR uni001E
ENCODING 30
SWIDTH 205 0
DWIDTH 7 0
BBX 1 1 0 0
BITMAP
00
ENDCHAR
STARTCHAR uni001F
ENCODING 31
SWIDTH 205 0
DWIDTH 7 0
BBX 1 1 0 0
BITMAP
00
ENDCHAR
STARTCHAR space
ENCODING 32
SWIDTH 205 0
DWIDTH 7 0
BBX 1 1 0 0
BITMAP
00
ENDCHAR
STARTCHAR exclam
ENCODING 33
SWIDTH 205 0
DWIDTH 7 0
BBX 1 1 0 0
BITMAP
00
ENDCHAR
STARTCHAR quotedbl
ENCODING 34
SWIDTH 205 0
DWIDTH 7 0
BBX 1 1 0 0
BITMAP
00
ENDCHAR
STARTCHAR numbersign
ENCODING 35
SWIDTH 205 0
DWIDTH 7 0
BBX 1 1 0 0
BITMAP
00
ENDCHAR
STARTCHAR dollar
ENCODING 36
SWIDTH 205 0
DWIDTH 7 0
BBX 1 1 0 0
BITMAP
00
ENDCHAR
STARTCHAR percent
ENCODING 37
SWIDTH 205 0
DWIDTH 7 0
BBX 1 1 0 0
BITMAP
00
ENDCHAR
STARTCHAR ampersand
ENCODING 38
SWIDTH 205 0
DWIDTH 7 0
BBX 1 1 0 0
BITMAP
00
ENDCHAR
STARTCHAR quotesingle
ENCODING 39
SWIDTH 205 0
DWIDTH 7 0
BBX 1 1 0 0
BITMAP
00
ENDCHAR
STARTCHAR parenleft
ENCODING 40
SWIDTH 205 0
DWIDTH 7 0
BBX 3 10 0 2
BITMAP
60
80
80
80
80
80
80
80
80
60
ENDCHAR
STARTCHAR parenright
ENCODING 41
SWIDTH 205 0
DWIDTH 7 0
BBX 3 10 3 2
BITMAP
C0
20
20
20
20
20
20
20
20
C0
ENDCHAR
STARTCHAR asterisk
ENCODING 42
SWIDTH 235 0
DWIDTH 8 0
BBX 5 5 1 7
BITMAP
A8
70
20
70
A8
ENDCHAR
STARTCHAR plus
ENCODING 43
SWIDTH 235 0
DWIDTH 8 0
BBX 7 7 0 4
BITMAP
10
10
10
FE
10
10
10
ENDCHAR
STARTCHAR comma
ENCODING 44
SWIDTH 205 0
DWIDTH 7 0
BBX 2 2 2 10
BITMAP
40
80
ENDCHAR
STARTCHAR hyphen
ENCODING 45
SWIDTH 235 0
DWIDTH 8 0
BBX 7 1 0 7
BITMAP
FE
ENDCHAR
STARTCHAR period
ENCODING 46
SWIDTH 205 0
DWIDTH 7 0
BBX 2 2 2 2
BITMAP
C0
C0
ENDCHAR
STARTCHAR slash
ENCODING 47
SWIDTH 235 0
DWIDTH 8 0
BBX 7 10 0 2
BITMAP
02
04
04
08
10
10
20
40
40
80
ENDCHAR
STARTCHAR zero
ENCODING 48
SWIDTH 205 0
DWIDTH 7 0
BBX 6 10 0 2
BITMAP
FC
84
84
84
84
84
84
84
84
FC
ENDCHAR
STARTCHAR one
ENCODING 49
SWIDTH 205 0
DWIDTH 7 0
BBX 2 10 4 2
BITMAP
C0
40
40
40
40
40
40
40
40
40
ENDCHAR
STARTCHAR two
ENCODING 50
SWIDTH 205 0
DWIDTH 7 0
BBX 6 10 0 2
BITMAP
FC
04
04
04
04
FC
80
80
80
FC
ENDCHAR
STARTCHAR three
ENCODING 51
SWIDTH 205 0
DWIDTH 7 0
BBX 6 10 0 2
BITMAP
FC
04
04
04
3C
04
04
04
04
FC
ENDCHAR
STARTCHAR four
ENCODING 52
SWIDTH 205 0
DWIDTH 7 0
BBX 6 10 0 2
BITMAP
84
84
84
84
84
FC
04
04
04
04
ENDCHAR
STARTCHAR five
ENCODING 53
SWIDTH 205 0
DWIDTH 7 0
BBX 6 10 0 2
BITMAP
FC
80
80
80
FC
04
04
04
04
FC
ENDCHAR
STARTCHAR six
ENCODING 54
SWIDTH 205 0
DWIDTH 7 0
BBX 6 10 0 2
BITMAP
FC
80
80
80
FC
84
84
84
84
FC
ENDCHAR
STARTCHAR seven
ENCODING 55
SWIDTH 205 0
DWIDTH 7 0
BBX 6 10 0 2
BITMAP
FC
04
04
04
04
04
04
04
04
04
ENDCHAR
STARTCHAR eight
ENCODING 56
SWIDTH 205 0
DWIDTH 7 0
BBX 6 10 0 2
BITMAP
FC
84
84
84
FC
84
84
84
84
FC
ENDCHAR
STARTCHAR nine
ENCODING 57
SWIDTH 205 0
DWIDTH 7 0
BBX 6 10 0 2
BITMAP
FC
84
84
84
FC
04
04
04
04
FC
ENDCHAR
STARTCHAR colon
ENCODING 58
SWIDTH 205 0
DWIDTH 7 0
BBX 2 7 2 2
BITMAP
C0
C0
00
00
00
C0
C0
ENDCHAR
STARTCHAR semicolon
ENCODING 59
SWIDTH 205 0
DWIDTH 7 0
BBX 1 1 0 0
BITMAP
00
ENDCHAR
STARTCHAR less
ENCODING 60
SWIDTH 205 0
DWIDTH 7 0
BBX 1 1 0 0
BITMAP
00
ENDCHAR
STARTCHAR equal
ENCODING 61
SWIDTH 205 0
DWIDTH 7 0
BBX 1 1 0 0
BITMAP
00
ENDCHAR
STARTCHAR greater
ENCODING 62
SWIDTH 205 0
DWIDTH 7 0
BBX 1 1 0 0
BITMAP
00
ENDCHAR
STARTCHAR question
ENCODING 63
SWIDTH 205 0
DWIDTH 7 0
BBX 1 1 0 0
BITMAP
00
ENDCHAR
STARTCHAR at
ENCODING 64
SWIDTH 205 0
DWIDTH 7 0
BBX 1 1 0 0
BITMAP
00
ENDCHAR
STARTCHAR A
ENCODING 65
SWIDTH 235 0
DWIDTH 8 0
BBX 7 10 0 2
BITMAP
FE
82
82
82
82
FE
82
82
82
82
ENDCHAR
STARTCHAR B
ENCODING 66
SWIDTH 235 0
DWIDTH 8 0
BBX 7 10 0 2
BITMAP
FE
82
82
82
FC
82
82
82
82
FE
ENDCHAR
STARTCHAR C
ENCODING 67
SWIDTH 235 0
DWIDTH 8 0
BBX 7 10 0 2
BITMAP
FE
80
80
80
80
80
80
80
80
FE
ENDCHAR
STARTCHAR D
ENCODING 68
SWIDTH 235 0
DWIDTH 8 0
BBX 7 10 0 2
BITMAP
FC
82
82
82
82
82
82
82
82
FC
ENDCHAR
STARTCHAR E
ENCODING 69
SWIDTH 235 0
DWIDTH 8 0
BBX 7 10 0 2
BITMAP
FE
80
80
80
F8
80
80
80
80
FE
ENDCHAR
STARTCHAR F
ENCODING 70
SWIDTH 235 0
DWIDTH 8 0
BBX 7 10 0 2
BITMAP
FE
80
80
80
F8
80
80
80
80
80
ENDCHAR
STARTCHAR G
ENCODING 71
SWIDTH 235 0
DWIDTH 8 0
BBX 7 10 0 2
BITMAP
FE
80
80
80
9E
82
82
82
82
FE
ENDCHAR
STARTCHAR H
ENCODING 72
SWIDTH 235 0
DWIDTH 8 0
BBX 7 10 0 2
BITMAP
82
82
82
82
FE
82
82
82
82
82
ENDCHAR
STARTCHAR I
ENCODING 73
SWIDTH 235 0
DWIDTH 8 0
BBX 1 10 3 2
BITMAP
80
80
80
80
80
80
80
80
80
80
ENDCHAR
STARTCHAR J
ENCODING 74
SWIDTH 235 0
DWIDTH 8 0
BBX 7 10 0 2
BITMAP
1E
02
02
02
02
02
82
82
82
7C
ENDCHAR
STARTCHAR K
ENCODING 75
SWIDTH 235 0
DWIDTH 8 0
BBX 7 10 0 2
BITMAP
82
84
88
90
E0
A0
90
88
84
82
ENDCHAR
STARTCHAR L
ENCODING 76
SWIDTH 235 0
DWIDTH 8 0
BBX 7 10 0 2
BITMAP
80
80
80
80
80
80
80
80
80
FE
ENDCHAR
STARTCHAR M
ENCODING 77
SWIDTH 235 0
DWIDTH 8 0
BBX 7 10 0 2
BITMAP
82
C6
AA
92
82
82
82
82
82
82
ENDCHAR
STARTCHAR N
ENCODING 78
SWIDTH 235 0
DWIDTH 8 0
BBX 7 10 0 2
BITMAP
C2
C2
A2
A2
92
92
8A
8A
86
86
ENDCHAR
STARTCHAR O
ENCODING 79
SWIDTH 235 0
DWIDTH 8 0
BBX 7 10 0 2
BITMAP
7C
82
82
82
82
82
82
82
82
7C
ENDCHAR
STARTCHAR P
ENCODING 80
SWIDTH 235 0
DWIDTH 8 0
BBX 7 10 0 2
BITMAP
FE
82
82
82
FE
80
80
80
80
80
ENDCHAR
STARTCHAR Q
ENCODING 81
SWIDTH 235 0
DWIDTH 8 0
BBX 7 10 0 2
BITMAP
78
84
84
84
84
84
84
84
84
7E
ENDCHAR
STARTCHAR R
ENCODING 82
SWIDTH 235 0
DWIDTH 8 0
BBX 7 10 0 2
BITMAP
FE
82
82
82
FE
A0
90
88
84
82
ENDCHAR
STARTCHAR S
ENCODING 83
SWIDTH 235 0
DWIDTH 8 0
BBX 7 10 0 2
BITMAP
FE
80
80
80
80
FE
02
02
02
FE
ENDCHAR
STARTCHAR T
ENCODING 84
SWIDTH 235 0
DWIDTH 8 0
BBX 7 9 0 3
BITMAP
FE
10
10
10
10
10
10
10
10
ENDCHAR
STARTCHAR U
ENCODING 85
SWIDTH 235 0
DWIDTH 8 0
BBX 7 10 0 2
BITMAP
82
82
82
82
82
82
82
82
82
FE
ENDCHAR
STARTCHAR V
ENCODING 86
SWIDTH 235 0
DWIDTH 8 0
BBX 7 10 0 2
BITMAP
82
82
82
44
44
6C
28
28
10
10
ENDCHAR
STARTCHAR W
ENCODING 87
SWIDTH 235 0
DWIDTH 8 0
BBX 7 10 0 2
BITMAP
82
82
82
82
82
92
92
AA
AA
C6
ENDCHAR
STARTCHAR X
ENCODING 88
SWIDTH 235 0
DWIDTH 8 0
BBX 7 10 0 2
BITMAP
82
44
44
28
10
10
28
44
44
82
ENDCHAR
STARTCHAR Y
ENCODING 89
SWIDTH 235 0
DWIDTH 8 0
BBX 7 10 0 2
BITMAP
82
82
82
82
FE
10
10
10
10
10
ENDCHAR
STARTCHAR Z
ENCODING 90
SWIDTH 235 0
DWIDTH 8 0
BBX 7 10 0 2
BITMAP
FE
02
06
0C
18
30
60
C0
80
FE
ENDCHAR
STARTCHAR bracketleft
ENCODING 91
SWIDTH 205 0
DWIDTH 7 0
BBX 4 10 0 2
BITMAP
F0
80
80
80
80
80
80
80
80
F0
ENDCHAR
STARTCHAR backslash
ENCODING 92
SWIDTH 1000 0
DWIDTH 7 0
BBX 6 10 0 2
BITMAP
80
40
40
20
20
10
10
08
08
04
ENDCHAR
STARTCHAR bracketright
ENCODING 93
SWIDTH 205 0
DWIDTH 7 0
BBX 4 10 2 2
BITMAP
F0
10
10
10
10
10
10
10
10
F0
ENDCHAR
STARTCHAR asciicircum
ENCODING 94
SWIDTH 205 0
DWIDTH 7 0
BBX 5 3 1 9
BITMAP
20
50
88
ENDCHAR
STARTCHAR underscore
ENCODING 95
SWIDTH 205 0
DWIDTH 7 0
BBX 6 1 0 2
BITMAP
FC
ENDCHAR
STARTCHAR grave
ENCODING 96
SWIDTH 205 0
DWIDTH 7 0
BBX 2 2 2 10
BITMAP
80
40
ENDCHAR
STARTCHAR a
ENCODING 97
SWIDTH 205 0
DWIDTH 7 0
BBX 1 1 0 0
BITMAP
00
ENDCHAR
STARTCHAR b
ENCODING 98
SWIDTH 205 0
DWIDTH 7 0
BBX 1 1 0 0
BITMAP
00
ENDCHAR
STARTCHAR c
ENCODING 99
SWIDTH 205 0
DWIDTH 7 0
BBX 1 1 0 0
BITMAP
00
ENDCHAR
STARTCHAR d
ENCODING 100
SWIDTH 205 0
DWIDTH 7 0
BBX 1 1 0 0
BITMAP
00
ENDCHAR
STARTCHAR e
ENCODING 101
SWIDTH 205 0
DWIDTH 7 0
BBX 1 1 0 0
BITMAP
00
ENDCHAR
STARTCHAR f
ENCODING 102
SWIDTH 205 0
DWIDTH 7 0
BBX 1 1 0 0
BITMAP
00
ENDCHAR
STARTCHAR g
ENCODING 103
SWIDTH 205 0
DWIDTH 7 0
BBX 1 1 0 0
BITMAP
00
ENDCHAR
STARTCHAR h
ENCODING 104
SWIDTH 205 0
DWIDTH 7 0
BBX 1 1 0 0
BITMAP
00
ENDCHAR
STARTCHAR i
ENCODING 105
SWIDTH 205 0
DWIDTH 7 0
BBX 1 1 0 0
BITMAP
00
ENDCHAR
STARTCHAR j
ENCODING 106
SWIDTH 205 0
DWIDTH 7 0
BBX 1 1 0 0
BITMAP
00
ENDCHAR
STARTCHAR k
ENCODING 107
SWIDTH 205 0
DWIDTH 7 0
BBX 1 1 0 0
BITMAP
00
ENDCHAR
STARTCHAR l
ENCODING 108
SWIDTH 205 0
DWIDTH 7 0
BBX 1 1 0 0
BITMAP
00
ENDCHAR
STARTCHAR m
ENCODING 109
SWIDTH 205 0
DWIDTH 7 0
BBX 1 1 0 0
BITMAP
00
ENDCHAR
STARTCHAR n
ENCODING 110
SWIDTH 205 0
DWIDTH 7 0
BBX 1 1 0 0
BITMAP
00
ENDCHAR
STARTCHAR o
ENCODING 111
SWIDTH 205 0
DWIDTH 7 0
BBX 1 1 0 0
BITMAP
00
ENDCHAR
STARTCHAR p
ENCODING 112
SWIDTH 205 0
DWIDTH 7 0
BBX 1 1 0 0
BITMAP
00
ENDCHAR
STARTCHAR q
ENCODING 113
SWIDTH 205 0
DWIDTH 7 0
BBX 1 1 0 0
BITMAP
00
ENDCHAR
STARTCHAR r
ENCODING 114
SWIDTH 205 0
DWIDTH 7 0
BBX 1 1 0 0
BITMAP
00
ENDCHAR
STARTCHAR s
ENCODING 115
SWIDTH 205 0
DWIDTH 7 0
BBX 1 1 0 0
BITMAP
00
ENDCHAR
STARTCHAR t
ENCODING 116
SWIDTH 205 0
DWIDTH 7 0
BBX 1 1 0 0
BITMAP
00
ENDCHAR
STARTCHAR u
ENCODING 117
SWIDTH 205 0
DWIDTH 7 0
BBX 1 1 0 0
BITMAP
00
ENDCHAR
STARTCHAR v
ENCODING 118
SWIDTH 205 0
DWIDTH 7 0
BBX 1 1 0 0
BITMAP
00
ENDCHAR
STARTCHAR w
ENCODING 119
SWIDTH 205 0
DWIDTH 7 0
BBX 1 1 0 0
BITMAP
00
ENDCHAR
STARTCHAR x
ENCODING 120
SWIDTH 205 0
DWIDTH 7 0
BBX 1 1 0 0
BITMAP
00
ENDCHAR
STARTCHAR y
ENCODING 121
SWIDTH 205 0
DWIDTH 7 0
BBX 1 1 0 0
BITMAP
00
ENDCHAR
STARTCHAR z
ENCODING 122
SWIDTH 205 0
DWIDTH 7 0
BBX 1 1 0 0
BITMAP
00
ENDCHAR
STARTCHAR braceleft
ENCODING 123
SWIDTH 205 0
DWIDTH 7 0
BBX 1 1 0 0
BITMAP
00
ENDCHAR
STARTCHAR bar
ENCODING 124
SWIDTH 205 0
DWIDTH 7 0
BBX 1 1 0 0
BITMAP
00
ENDCHAR
STARTCHAR braceright
ENCODING 125
SWIDTH 205 0
DWIDTH 7 0
BBX 1 1 0 0
BITMAP
00
ENDCHAR
STARTCHAR asciitilde
ENCODING 126
SWIDTH 205 0
DWIDTH 7 0
BBX 1 1 0 0
BITMAP
00
ENDCHAR
STARTCHAR uni007F
ENCODING 127
SWIDTH 205 0
DWIDTH 7 0
BBX 1 1 0 0
BITMAP
00
ENDCHAR
STARTCHAR uni0080
ENCODING 128
SWIDTH 205 0
DWIDTH 7 0
BBX 1 1 0 0
BITMAP
00
ENDCHAR
STARTCHAR uni0081
ENCODING 129
SWIDTH 205 0
DWIDTH 7 0
BBX 1 1 0 0
BITMAP
00
ENDCHAR
STARTCHAR uni0082
ENCODING 130
SWIDTH 205 0
DWIDTH 7 0
BBX 1 1 0 0
BITMAP
00
ENDCHAR
STARTCHAR uni0083
ENCODING 131
SWIDTH 205 0
DWIDTH 7 0
BBX 1 1 0 0
BITMAP
00
ENDCHAR
STARTCHAR uni0084
ENCODING 132
SWIDTH 205 0
DWIDTH 7 0
BBX 1 1 0 0
BITMAP
00
ENDCHAR
STARTCHAR uni0085
ENCODING 133
SWIDTH 205 0
DWIDTH 7 0
BBX 1 1 0 0
BITMAP
00
ENDCHAR
STARTCHAR uni0086
ENCODING 134
SWIDTH 205 0
DWIDTH 7 0
BBX 1 1 0 0
BITMAP
00
ENDCHAR
STARTCHAR uni0087
ENCODING 135
SWIDTH 205 0
DWIDTH 7 0
BBX 1 1 0 0
BITMAP
00
ENDCHAR
STARTCHAR uni0088
ENCODING 136
SWIDTH 205 0
DWIDTH 7 0
BBX 1 1 0 0
BITMAP
00
ENDCHAR
STARTCHAR uni0089
ENCODING 137
SWIDTH 205 0
DWIDTH 7 0
BBX 1 1 0 0
BITMAP
00
ENDCHAR
STARTCHAR uni008A
ENCODING 138
SWIDTH 205 0
DWIDTH 7 0
BBX 1 1 0 0
BITMAP
00
ENDCHAR
STARTCHAR uni008B
ENCODING 139
SWIDTH 205 0
DWIDTH 7 0
BBX 1 1 0 0
BITMAP
00
ENDCHAR
STARTCHAR uni008C
ENCODING 140
SWIDTH 205 0
DWIDTH 7 0
BBX 1 1 0 0
BITMAP
00
ENDCHAR
STARTCHAR uni008D
ENCODING 141
SWIDTH 205 0
DWIDTH 7 0
BBX 1 1 0 0
BITMAP
00
ENDCHAR
STARTCHAR uni008E
ENCODING 142
SWIDTH 205 0
DWIDTH 7 0
BBX 1 1 0 0
BITMAP
00
ENDCHAR
STARTCHAR uni008F
ENCODING 143
SWIDTH 205 0
DWIDTH 7 0
BBX 1 1 0 0
BITMAP
00
ENDCHAR
STARTCHAR uni0090
ENCODING 144
SWIDTH 205 0
DWIDTH 7 0
BBX 1 1 0 0
BITMAP
00
ENDCHAR
STARTCHAR uni0091
ENCODING 145
SWIDTH 205 0
DWIDTH 7 0
BBX 1 1 0 0
BITMAP
00
ENDCHAR
STARTCHAR uni0092
ENCODING 146
SWIDTH 205 0
DWIDTH 7 0
BBX 1 1 0 0
BITMAP
00
ENDCHAR
STARTCHAR uni0093
ENCODING 147
SWIDTH 205 0
DWIDTH 7 0
BBX 1 1 0 0
BITMAP
00
ENDCHAR
STARTCHAR uni0094
ENCODING 148
SWIDTH 205 0
DWIDTH 7 0
BBX 1 1 0 0
BITMAP
00
ENDCHAR
STARTCHAR uni0095
ENCODING 149
SWIDTH 205 0
DWIDTH 7 0
BBX 1 1 0 0
BITMAP
00
ENDCHAR
STARTCHAR uni0096
ENCODING 150
SWIDTH 205 0
DWIDTH 7 0
BBX 1 1 0 0
BITMAP
00
ENDCHAR
STARTCHAR uni0097
ENCODING 151
SWIDTH 205 0
DWIDTH 7 0
BBX 1 1 0 0
BITMAP
00
ENDCHAR
STARTCHAR uni0098
ENCODING 152
SWIDTH 205 0
DWIDTH 7 0
BBX 1 1 0 0
BITMAP
00
ENDCHAR
STARTCHAR uni0099
ENCODING 153
SWIDTH 205 0
DWIDTH 7 0
BBX 1 1 0 0
BITMAP
00
ENDCHAR
STARTCHAR uni009A
ENCODING 154
SWIDTH 205 0
DWIDTH 7 0
BBX 1 1 0 0
BITMAP
00
ENDCHAR
STARTCHAR uni009B
ENCODING 155
SWIDTH 205 0
DWIDTH 7 0
BBX 1 1 0 0
BITMAP
00
ENDCHAR
STARTCHAR uni009C
ENCODING 156
SWIDTH 205 0
DWIDTH 7 0
BBX 1 1 0 0
BITMAP
00
ENDCHAR
STARTCHAR uni009D
ENCODING 157
SWIDTH 205 0
DWIDTH 7 0
BBX 1 1 0 0
BITMAP
00
ENDCHAR
STARTCHAR uni009E
ENCODING 158
SWIDTH 205 0
DWIDTH 7 0
BBX 1 1 0 0
BITMAP
00
ENDCHAR
STARTCHAR uni009F
ENCODING 159
SWIDTH 205 0
DWIDTH 7 0
BBX 1 1 0 0
BITMAP
00
ENDCHAR
STARTCHAR uni00A0
ENCODING 160
SWIDTH 205 0
DWIDTH 7 0
BBX 1 1 0 0
BITMAP
00
ENDCHAR
STARTCHAR exclamdown
ENCODING 161
SWIDTH 205 0
DWIDTH 7 0
BBX 1 1 0 0
BITMAP
00
ENDCHAR
STARTCHAR cent
ENCODING 162
SWIDTH 205 0
DWIDTH 7 0
BBX 1 1 0 0
BITMAP
00
ENDCHAR
STARTCHAR sterling
ENCODING 163
SWIDTH 205 0
DWIDTH 7 0
BBX 1 1 0 0
BITMAP
00
ENDCHAR
STARTCHAR currency
ENCODING 164
SWIDTH 205 0
DWIDTH 7 0
BBX 1 1 0 0
BITMAP
00
ENDCHAR
STARTCHAR yen
ENCODING 165
SWIDTH 205 0
DWIDTH 7 0
BBX 1 1 0 0
BITMAP
00
ENDCHAR
STARTCHAR brokenbar
ENCODING 166
SWIDTH 205 0
DWIDTH 7 0
BBX 1 1 0 0
BITMAP
00
ENDCHAR
STARTCHAR section
ENCODING 167
SWIDTH 205 0
DWIDTH 7 0
BBX 1 1 0 0
BITMAP
00
ENDCHAR
STARTCHAR dieresis
ENCODING 168
SWIDTH 205 0
DWIDTH 7 0
BBX 1 1 0 0
BITMAP
00
ENDCHAR
STARTCHAR copyright
ENCODING 169
SWIDTH 205 0
DWIDTH 7 0
BBX 1 1 0 0
BITMAP
00
ENDCHAR
STARTCHAR ordfeminine
ENCODING 170
SWIDTH 205 0
DWIDTH 7 0
BBX 1 1 0 0
BITMAP
00
ENDCHAR
STARTCHAR guillemotleft
ENCODING 171
SWIDTH 205 0
DWIDTH 7 0
BBX 1 1 0 0
BITMAP
00
ENDCHAR
STARTCHAR logicalnot
ENCODING 172
SWIDTH 205 0
DWIDTH 7 0
BBX 1 1 0 0
BITMAP
00
ENDCHAR
STARTCHAR uni00AD
ENCODING 173
SWIDTH 205 0
DWIDTH 7 0
BBX 1 1 0 0
BITMAP
00
ENDCHAR
STARTCHAR registered
ENCODING 174
SWIDTH 205 0
DWIDTH 7 0
BBX 1 1 0 0
BITMAP
00
ENDCHAR
STARTCHAR macron
ENCODING 175
SWIDTH 205 0
DWIDTH 7 0
BBX 1 1 0 0
BITMAP
00
ENDCHAR
STARTCHAR degree
ENCODING 176
SWIDTH 205 0
DWIDTH 7 0
BBX 3 3 2 9
BITMAP
E0
A0
E0
ENDCHAR
STARTCHAR plusminus
ENCODING 177
SWIDTH 205 0
DWIDTH 7 0
BBX 1 1 0 0
BITMAP
00
ENDCHAR
STARTCHAR uni00B2
ENCODING 178
SWIDTH 205 0
DWIDTH 7 0
BBX 1 1 0 0
BITMAP
00
ENDCHAR
STARTCHAR uni00B3
ENCODING 179
SWIDTH 205 0
DWIDTH 7 0
BBX 1 1 0 0
BITMAP
00
ENDCHAR
STARTCHAR acute
ENCODING 180
SWIDTH 205 0
DWIDTH 7 0
BBX 1 1 0 0
BITMAP
00
ENDCHAR
STARTCHAR uni00B5
ENCODING 181
SWIDTH 205 0
DWIDTH 7 0
BBX 1 1 0 0
BITMAP
00
ENDCHAR
STARTCHAR paragraph
ENCODING 182
SWIDTH 205 0
DWIDTH 7 0
BBX 1 1 0 0
BITMAP
00
ENDCHAR
STARTCHAR periodcentered
ENCODING 183
SWIDTH 205 0
DWIDTH 7 0
BBX 1 1 0 0
BITMAP
00
ENDCHAR
STARTCHAR cedilla
ENCODING 184
SWIDTH 205 0
DWIDTH 7 0
BBX 1 1 0 0
BITMAP
00
ENDCHAR
STARTCHAR uni00B9
ENCODING 185
SWIDTH 205 0
DWIDTH 7 0
BBX 1 1 0 0
BITMAP
00
ENDCHAR
STARTCHAR ordmasculine
ENCODING 186
SWIDTH 205 0
DWIDTH 7 0
BBX 1 1 0 0
BITMAP
00
ENDCHAR
STARTCHAR guillemotright
ENCODING 187
SWIDTH 205 0
DWIDTH 7 0
BBX 1 1 0 0
BITMAP
00
ENDCHAR
STARTCHAR onequarter
ENCODING 188
SWIDTH 205 0
DWIDTH 7 0
BBX 1 1 0 0
BITMAP
00
ENDCHAR
STARTCHAR onehalf
ENCODING 189
SWIDTH 205 0
DWIDTH 7 0
BBX 1 1 0 0
BITMAP
00
ENDCHAR
STARTCHAR threequarters
ENCODING 190
SWIDTH 205 0
DWIDTH 7 0
BBX 1 1 0 0
BITMAP
00
ENDCHAR
STARTCHAR questiondown
ENCODING 191
SWIDTH 205 0
DWIDTH 7 0
BBX 1 1 0 0
BITMAP
00
ENDCHAR
STARTCHAR Agrave
ENCODING 192
SWIDTH 205 0
DWIDTH 7 0
BBX 1 1 0 0
BITMAP
00
ENDCHAR
STARTCHAR Aacute
ENCODING 193
SWIDTH 205 0
DWIDTH 7 0
BBX 1 1 0 0
BITMAP
00
ENDCHAR
STARTCHAR Acircumflex
ENCODING 194
SWIDTH 205 0
DWIDTH 7 0
BBX 1 1 0 0
BITMAP
00
ENDCHAR
STARTCHAR Atilde
ENCODING 195
SWIDTH 205 0
DWIDTH 7 0
BBX 1 1 0 0
BITMAP
00
ENDCHAR
STARTCHAR Adieresis
ENCODING 196
SWIDTH 205 0
DWIDTH 7 0
BBX 1 1 0 0
BITMAP
00
ENDCHAR
STARTCHAR Aring
ENCODING 197
SWIDTH 205 0
DWIDTH 7 0
BBX 1 1 0 0
BITMAP
00
ENDCHAR
STARTCHAR AE
ENCODING 198
SWIDTH 205 0
DWIDTH 7 0
BBX 1 1 0 0
BITMAP
00
ENDCHAR
STARTCHAR Ccedilla
ENCODING 199
SWIDTH 205 0
DWIDTH 7 0
BBX 1 1 0 0
BITMAP
00
ENDCHAR
STARTCHAR Egrave
ENCODING 200
SWIDTH 205 0
DWIDTH 7 0
BBX 1 1 0 0
BITMAP
00
ENDCHAR
STARTCHAR Eacute
ENCODING 201
SWIDTH 205 0
DWIDTH 7 0
BBX 1 1 0 0
BITMAP
00
ENDCHAR
STARTCHAR Ecircumflex
ENCODING 202
SWIDTH 205 0
DWIDTH 7 0
BBX 1 1 0 0
BITMAP
00
ENDCHAR
STARTCHAR Edieresis
ENCODING 203
SWIDTH 205 0
DWIDTH 7 0
BBX 1 1 0 0
BITMAP
00
ENDCHAR
STARTCHAR Igrave
ENCODING 204
SWIDTH 205 0
DWIDTH 7 0
BBX 1 1 0 0
BITMAP
00
ENDCHAR
STARTCHAR Iacute
ENCODING 205
SWIDTH 205 0
DWIDTH 7 0
BBX 1 1 0 0
BITMAP
00
ENDCHAR
STARTCHAR Icircumflex
ENCODING 206
SWIDTH 205 0
DWIDTH 7 0
BBX 1 1 0 0
BITMAP
00
ENDCHAR
STARTCHAR Idieresis
ENCODING 207
SWIDTH 205 0
DWIDTH 7 0
BBX 1 1 0 0
BITMAP
00
ENDCHAR
STARTCHAR Eth
ENCODING 208
SWIDTH 205 0
DWIDTH 7 0
BBX 1 1 0 0
BITMAP
00
ENDCHAR
STARTCHAR Ntilde
ENCODING 209
SWIDTH 205 0
DWIDTH 7 0
BBX 1 1 0 0
BITMAP
00
ENDCHAR
STARTCHAR Ograve
ENCODING 210
SWIDTH 205 0
DWIDTH 7 0
BBX 1 1 0 0
BITMAP
00
ENDCHAR
STARTCHAR Oacute
ENCODING 211
SWIDTH 205 0
DWIDTH 7 0
BBX 1 1 0 0
BITMAP
00
ENDCHAR
STARTCHAR Ocircumflex
ENCODING 212
SWIDTH 205 0
DWIDTH 7 0
BBX 1 1 0 0
BITMAP
00
ENDCHAR
STARTCHAR Otilde
ENCODING 213
SWIDTH 205 0
DWIDTH 7 0
BBX 1 1 0 0
BITMAP
00
ENDCHAR
STARTCHAR Odieresis
ENCODING 214
SWIDTH 205 0
DWIDTH 7 0
BBX 1 1 0 0
BITMAP
00
ENDCHAR
STARTCHAR multiply
ENCODING 215
SWIDTH 205 0
DWIDTH 7 0
BBX 1 1 0 0
BITMAP
00
ENDCHAR
STARTCHAR Oslash
ENCODING 216
SWIDTH 205 0
DWIDTH 7 0
BBX 1 1 0 0
BITMAP
00
ENDCHAR
STARTCHAR Ugrave
ENCODING 217
SWIDTH 205 0
DWIDTH 7 0
BBX 1 1 0 0
BITMAP
00
ENDCHAR
STARTCHAR Uacute
ENCODING 218
SWIDTH 205 0
DWIDTH 7 0
BBX 1 1 0 0
BITMAP
00
ENDCHAR
STARTCHAR Ucircumflex
ENCODING 219
SWIDTH 205 0
DWIDTH 7 0
BBX 1 1 0 0
BITMAP
00
ENDCHAR
STARTCHAR Udieresis
ENCODING 220
SWIDTH 205 0
DWIDTH 7 0
BBX 1 1 0 0
BITMAP
00
ENDCHAR
STARTCHAR Yacute
ENCODING 221
SWIDTH 205 0
DWIDTH 7 0
BBX 1 1 0 0
BITMAP
00
ENDCHAR
STARTCHAR Thorn
ENCODING 222
SWIDTH 205 0
DWIDTH 7 0
BBX 1 1 0 0
BITMAP
00
ENDCHAR
STARTCHAR germandbls
ENCODING 223
SWIDTH 205 0
DWIDTH 7 0
BBX 1 1 0 0
BITMAP
00
ENDCHAR
STARTCHAR agrave
ENCODING 224
SWIDTH 205 0
DWIDTH 7 0
BBX 1 1 0 0
BITMAP
00
ENDCHAR
STARTCHAR aacute
ENCODING 225
SWIDTH 205 0
DWIDTH 7 0
BBX 1 1 0 0
BITMAP
00
ENDCHAR
STARTCHAR acircumflex
ENCODING 226
SWIDTH 205 0
DWIDTH 7 0
BBX 1 1 0 0
BITMAP
00
ENDCHAR
STARTCHAR atilde
ENCODING 227
SWIDTH 205 0
DWIDTH 7 0
BBX 1 1 0 0
BITMAP
00
ENDCHAR
STARTCHAR adieresis
ENCODING 228
SWIDTH 205 0
DWIDTH 7 0
BBX 1 1 0 0
BITMAP
00
ENDCHAR
STARTCHAR aring
ENCODING 229
SWIDTH 205 0
DWIDTH 7 0
BBX 1 1 0 0
BITMAP
00
ENDCHAR
STARTCHAR ae
ENCODING 230
SWIDTH 205 0
DWIDTH 7 0
BBX 1 1 0 0
BITMAP
00
ENDCHAR
STARTCHAR ccedilla
ENCODING 231
SWIDTH 205 0
DWIDTH 7 0
BBX 1 1 0 0
BITMAP
00
ENDCHAR
STARTCHAR egrave
ENCODING 232
SWIDTH 205 0
DWIDTH 7 0
BBX 1 1 0 0
BITMAP
00
ENDCHAR
STARTCHAR eacute
ENCODING 233
SWIDTH 205 0
DWIDTH 7 0
BBX 1 1 0 0
BITMAP
00
ENDCHAR
STARTCHAR ecircumflex
ENCODING 234
SWIDTH 205 0
DWIDTH 7 0
BBX 1 1 0 0
BITMAP
00
ENDCHAR
STARTCHAR edieresis
ENCODING 235
SWIDTH 205 0
DWIDTH 7 0
BBX 1 1 0 0
BITMAP
00
ENDCHAR
STARTCHAR igrave
ENCODING 236
SWIDTH 205 0
DWIDTH 7 0
BBX 1 1 0 0
BITMAP
00
ENDCHAR
STARTCHAR iacute
ENCODING 237
SWIDTH 205 0
DWIDTH 7 0
BBX 1 1 0 0
BITMAP
00
ENDCHAR
STARTCHAR icircumflex
ENCODING 238
SWIDTH 205 0
DWIDTH 7 0
BBX 1 1 0 0
BITMAP
00
ENDCHAR
STARTCHAR idieresis
ENCODING 239
SWIDTH 205 0
DWIDTH 7 0
BBX 1 1 0 0
BITMAP
00
ENDCHAR
STARTCHAR eth
ENCODING 240
SWIDTH 205 0
DWIDTH 7 0
BBX 1 1 0 0
BITMAP
00
ENDCHAR
STARTCHAR ntilde
ENCODING 241
SWIDTH 205 0
DWIDTH 7 0
BBX 1 1 0 0
BITMAP
00
ENDCHAR
STARTCHAR ograve
ENCODING 242
SWIDTH 205 0
DWIDTH 7 0
BBX 1 1 0 0
BITMAP
00
ENDCHAR
STARTCHAR oacute
ENCODING 243
SWIDTH 205 0
DWIDTH 7 0
BBX 1 1 0 0
BITMAP
00
ENDCHAR
STARTCHAR ocircumflex
ENCODING 244
SWIDTH 205 0
DWIDTH 7 0
BBX 1 1 0 0
BITMAP
00
ENDCHAR
STARTCHAR otilde
ENCODING 245
SWIDTH 205 0
DWIDTH 7 0
BBX 1 1 0 0
BITMAP
00
ENDCHAR
STARTCHAR odieresis
ENCODING 246
SWIDTH 205 0
DWIDTH 7 0
BBX 1 1 0 0
BITMAP
00
ENDCHAR
STARTCHAR divide
ENCODING 247
SWIDTH 205 0
DWIDTH 7 0
BBX 1 1 0 0
BITMAP
00
ENDCHAR
STARTCHAR oslash
ENCODING 248
SWIDTH 205 0
DWIDTH 7 0
BBX 1 1 0 0
BITMAP
00
ENDCHAR
STARTCHAR ugrave
ENCODING 249
SWIDTH 205 0
DWIDTH 7 0
BBX 1 1 0 0
BITMAP
00
ENDCHAR
STARTCHAR uacute
ENCODING 250
SWIDTH 205 0
DWIDTH 7 0
BBX 1 1 0 0
BITMAP
00
ENDCHAR
STARTCHAR ucircumflex
ENCODING 251
SWIDTH 205 0
DWIDTH 7 0
BBX 1 1 0 0
BITMAP
00
ENDCHAR
STARTCHAR udieresis
ENCODING 252
SWIDTH 205 0
DWIDTH 7 0
BBX 1 1 0 0
BITMAP
00
ENDCHAR
STARTCHAR yacute
ENCODING 253
SWIDTH 205 0
DWIDTH 7 0
BBX 1 1 0 0
BITMAP
00
ENDCHAR
STARTCHAR thorn
ENCODING 254
SWIDTH 205 0
DWIDTH 7 0
BBX 1 1 0 0
BITMAP
00
ENDCHAR
STARTCHAR ydieresis
ENCODING 255
SWIDTH 205 0
DWIDTH 7 0
BBX 1 1 0 0
BITMAP
00
ENDCHAR
ENDFONT
